<svg xmlns="http://www.w3.org/2000/svg" class="svg-symbols">
  <defs>
    <symbol id="svg-logo" viewBox="0 0 3200 3366">
      <title>Logo</title>
      <g transform="scale(18.303172264058226) translate(10, 10)">

        <g id="SvgjsG1019" rel="mainfill" name="main_text" xmlns:name="mainText_mainfill" fill="currentColor" transform="translate(29.691503047943115,54.09100151062012)"><path d="M15.867 40.93599999999999 q-0.731 -0.086 -1.8275 -0.1935 t-2.0855 -0.1075 q-3.225 0 -4.988 1.204 t-1.763 3.44 q0 1.419 0.5375 2.279 t1.3975 1.3115 t1.892 0.602 t2.064 0.1505 q1.333 0 2.494 -0.129 t2.279 -0.344 l0 -8.213 z M15.867 37.108999999999995 q0 -2.838 -1.333 -4.1495 t-3.956 -1.3115 q-1.72 0 -3.139 0.2365 t-2.537 0.5805 q-0.215 -0.387 -0.3655 -1.118 t-0.1505 -1.376 q1.118 -0.344 2.752 -0.5805 t3.354 -0.2365 q4.171 0 6.192 1.8275 t2.021 5.7405 l0 14.491 q-1.505 0.301 -3.655 0.602 t-4.085 0.301 q-3.999 0 -6.2995 -1.591 t-2.3005 -5.16 q0 -1.72 0.6665 -3.0745 t1.849 -2.279 t2.838 -1.3975 t3.6335 -0.473 q1.548 0 2.666 0.1075 t1.849 0.1935 l0 -1.333 z M25.842999999999996 29.669999999999995 q0.344 -0.043 0.6665 -0.0645 t0.6235 -0.0215 q0.344 0 0.645 0.0215 t0.645 0.0645 q0.086 0.774 0.129 1.935 t0.043 2.021 q0.43 -0.774 1.118 -1.5695 t1.6125 -1.4405 t2.1285 -1.0535 t2.623 -0.4085 q3.784 0 5.504 2.2575 t1.72 6.3425 l0 13.846 q-0.258 0.043 -0.7095 0.0645 t-0.7095 0.0215 q-0.215 0 -0.688 -0.0215 t-0.731 -0.0645 l0 -12.986 q0 -3.655 -1.1395 -5.246 t-3.4185 -1.591 q-1.505 0 -2.838 0.602 t-2.3005 1.7415 t-1.5265 2.8165 t-0.559 3.827 l0 10.836 q-0.258 0.043 -0.7095 0.0645 t-0.7095 0.0215 q-0.215 0 -0.688 -0.0215 t-0.731 -0.0645 l0 -21.93 z M65.18799999999999 19.994999999999994 q0.258 -0.043 0.731 -0.0645 t0.688 -0.0215 q0.258 0 0.7095 0.0215 t0.7095 0.0645 l0 31.089 q-1.333 0.43 -3.311 0.731 t-4.128 0.301 q-2.365 0 -4.429 -0.559 t-3.569 -1.849 t-2.3865 -3.397 t-0.8815 -5.203 q0 -2.838 0.774 -5.0525 t2.193 -3.741 t3.4185 -2.3435 t4.4075 -0.817 q1.419 0 2.8165 0.2365 t2.2575 0.5375 l0 -9.933 z M65.18799999999999 32.593999999999994 q-0.86 -0.344 -2.193 -0.6235 t-2.752 -0.2795 q-2.021 0 -3.5045 0.688 t-2.4725 1.9135 t-1.4835 2.9455 t-0.4945 3.784 q0 4.472 2.1285 6.5145 t6.0415 2.0425 q1.419 0 2.709 -0.1505 t2.021 -0.3655 l0 -16.469 z M82.86099999999999 51.68599999999999 l-0.817 0 q-0.387 0 -0.8815 -0.0215 t-0.7525 -0.0645 l-7.912 -21.93 q0.258 -0.043 0.731 -0.0645 t0.903 -0.0215 q0.344 0 0.86 0.0215 t0.774 0.0645 l7.267 21.328 l7.138 -21.328 q0.258 -0.043 0.688 -0.0645 t0.774 -0.0215 t0.774 0.0215 t0.688 0.0645 l-9.632 28.423 q-0.774 2.365 -2.193 3.311 t-3.354 0.946 q-0.903 0 -1.8275 -0.172 t-1.5265 -0.344 q0 -1.333 0.645 -2.408 q0.344 0.129 1.032 0.2795 t1.548 0.1505 q1.247 0 1.9995 -0.602 t1.3115 -2.236 z"/></g><g id="SvgjsG1020" rel="mainfill" name="main_text_2" xmlns:name="mainText2_mainfill" fill="currentColor" transform="translate(-3.7839999198913574,106.79000282287598)"><path d="M3.784 19.994999999999994 q0.258 -0.043 0.7095 -0.0645 t0.7095 -0.0215 q0.215 0 0.688 0.0215 t0.731 0.0645 l0 13.588 q0.43 -0.774 1.118 -1.5695 t1.591 -1.4405 t2.0425 -1.032 t2.5155 -0.387 q3.784 0 5.5685 2.2575 t1.7845 6.3425 l0 13.846 q-0.258 0.043 -0.7095 0.0645 t-0.7095 0.0215 q-0.215 0 -0.688 -0.0215 t-0.731 -0.0645 l0 -12.986 q0 -3.655 -1.204 -5.246 t-3.483 -1.591 q-1.505 0 -2.8165 0.559 t-2.2575 1.6555 t-1.4835 2.752 t-0.5375 3.8055 l0 11.051 q-0.258 0.043 -0.7095 0.0645 t-0.7095 0.0215 q-0.215 0 -0.688 -0.0215 t-0.731 -0.0645 l0 -31.605 z M36.937 49.62199999999999 q3.44 0 5.1385 -2.408 t1.6985 -6.579 t-1.6985 -6.579 t-5.1385 -2.408 t-5.1385 2.408 t-1.6985 6.579 t1.6985 6.579 t5.1385 2.408 z M36.937 52.11599999999999 q-2.451 0 -4.3 -0.8815 t-3.0745 -2.4295 t-1.8275 -3.655 t-0.602 -4.515 t0.602 -4.515 t1.8275 -3.655 t3.0745 -2.4295 t4.3 -0.8815 t4.2785 0.8815 t3.053 2.4295 t1.849 3.655 t0.6235 4.515 t-0.6235 4.515 t-1.849 3.655 t-3.053 2.4295 t-4.2785 0.8815 z M54.60999999999999 32.077999999999996 l-3.741 0 q-0.043 -0.215 -0.0645 -0.516 t-0.0215 -0.645 t0.0215 -0.688 t0.0645 -0.559 l3.741 0 l0 -1.935 q0 -4.042 1.7845 -6.063 t5.6545 -2.021 q0.903 0 1.6555 0.1075 t1.2685 0.2365 q-0.086 0.817 -0.1935 1.333 t-0.2795 1.118 q-0.387 -0.086 -1.032 -0.1935 t-1.376 -0.1075 q-1.118 0 -1.978 0.2365 t-1.4405 0.86 t-0.903 1.7415 t-0.3225 2.881 l0 1.806 l6.02 0 q0.043 0.215 0.0645 0.559 t0.0215 0.688 t-0.0215 0.645 t-0.0645 0.516 l-6.02 0 l0 19.522 q-0.258 0.043 -0.7095 0.0645 t-0.7095 0.0215 q-0.215 0 -0.688 -0.0215 t-0.731 -0.0645 l0 -19.522 z M69.65999999999998 32.077999999999996 l-3.741 0 q-0.043 -0.215 -0.0645 -0.516 t-0.0215 -0.645 t0.0215 -0.688 t0.0645 -0.559 l3.741 0 l0 -1.935 q0 -4.042 1.7845 -6.063 t5.6545 -2.021 q0.903 0 1.6555 0.1075 t1.2685 0.2365 q-0.086 0.817 -0.1935 1.333 t-0.2795 1.118 q-0.387 -0.086 -1.032 -0.1935 t-1.376 -0.1075 q-1.118 0 -1.978 0.2365 t-1.4405 0.86 t-0.903 1.7415 t-0.3225 2.881 l0 1.806 l6.02 0 q0.043 0.215 0.0645 0.559 t0.0215 0.688 t-0.0215 0.645 t-0.0645 0.516 l-6.02 0 l0 19.522 q-0.258 0.043 -0.7095 0.0645 t-0.7095 0.0215 q-0.215 0 -0.688 -0.0215 t-0.731 -0.0645 l0 -19.522 z M83.16199999999999 29.669999999999995 q0.344 -0.043 0.6665 -0.0645 t0.6235 -0.0215 q0.344 0 0.645 0.0215 t0.645 0.0645 q0.086 0.774 0.129 1.849 t0.043 1.935 q0.387 -0.817 0.989 -1.591 t1.419 -1.376 t1.8705 -0.9675 t2.3865 -0.3655 q1.247 0 2.15 0.301 t1.5695 0.8385 t1.118 1.2685 t0.8385 1.634 q0.473 -0.688 1.075 -1.419 t1.376 -1.3115 t1.7845 -0.946 t2.2575 -0.3655 q3.827 0 5.5255 2.193 t1.6985 6.278 l0 13.975 q-0.258 0.043 -0.7095 0.0645 t-0.7095 0.0215 q-0.215 0 -0.688 -0.0215 t-0.731 -0.0645 l0 -12.986 q0 -3.483 -1.1395 -5.16 t-3.4185 -1.677 q-1.376 0 -2.408 0.559 t-1.72 1.505 t-1.0535 2.2145 t-0.3655 2.6875 l0 12.857 q-0.258 0.043 -0.7095 0.0645 t-0.7095 0.0215 q-0.215 0 -0.688 -0.0215 t-0.731 -0.0645 l0 -13.545 q0 -3.311 -1.0535 -4.902 t-3.0315 -1.591 q-1.333 0 -2.451 0.6665 t-1.935 1.8705 t-1.2685 2.8595 t-0.4515 3.6335 l0 11.008 q-0.258 0.043 -0.7095 0.0645 t-0.7095 0.0215 q-0.215 0 -0.688 -0.0215 t-0.731 -0.0645 l0 -21.93 z M131.19299999999998 40.93599999999999 q-0.731 -0.086 -1.8275 -0.1935 t-2.0855 -0.1075 q-3.225 0 -4.988 1.204 t-1.763 3.44 q0 1.419 0.5375 2.279 t1.3975 1.3115 t1.892 0.602 t2.064 0.1505 q1.333 0 2.494 -0.129 t2.279 -0.344 l0 -8.213 z M131.19299999999998 37.108999999999995 q0 -2.838 -1.333 -4.1495 t-3.956 -1.3115 q-1.72 0 -3.139 0.2365 t-2.537 0.5805 q-0.215 -0.387 -0.3655 -1.118 t-0.1505 -1.376 q1.118 -0.344 2.752 -0.5805 t3.354 -0.2365 q4.171 0 6.192 1.8275 t2.021 5.7405 l0 14.491 q-1.505 0.301 -3.655 0.602 t-4.085 0.301 q-3.999 0 -6.2995 -1.591 t-2.3005 -5.16 q0 -1.72 0.6665 -3.0745 t1.849 -2.279 t2.838 -1.3975 t3.6335 -0.473 q1.548 0 2.666 0.1075 t1.849 0.1935 l0 -1.333 z M141.16899999999998 29.669999999999995 q0.344 -0.043 0.6665 -0.0645 t0.6235 -0.0215 q0.344 0 0.645 0.0215 t0.645 0.0645 q0.086 0.774 0.129 1.935 t0.043 2.021 q0.43 -0.774 1.118 -1.5695 t1.6125 -1.4405 t2.1285 -1.0535 t2.623 -0.4085 q3.784 0 5.504 2.2575 t1.72 6.3425 l0 13.846 q-0.258 0.043 -0.7095 0.0645 t-0.7095 0.0215 q-0.215 0 -0.688 -0.0215 t-0.731 -0.0645 l0 -12.986 q0 -3.655 -1.1395 -5.246 t-3.4185 -1.591 q-1.505 0 -2.838 0.602 t-2.3005 1.7415 t-1.5265 2.8165 t-0.559 3.827 l0 10.836 q-0.258 0.043 -0.7095 0.0645 t-0.7095 0.0215 q-0.215 0 -0.688 -0.0215 t-0.731 -0.0645 l0 -21.93 z"/></g><defs id="SvgjsDefs1018"/><g id="SvgjsG1021" rel="mainfill" name="symbol" xmlns:name="symbol_mainfill" fill="currentColor" transform="translate(34.01729117426138,-13.905486739154009) scale(0.8680843688534178)"><title xmlns="http://www.w3.org/2000/svg">04</title><polygon xmlns="http://www.w3.org/2000/svg" points="29.43 29.76 11.11 50.6 29.43 71.44 35.44 66.16 21.76 50.6 35.44 35.04 29.43 29.76"/><polygon xmlns="http://www.w3.org/2000/svg" points="64.56 35.04 78.24 50.6 64.56 66.16 70.57 71.44 88.89 50.6 70.57 29.76 64.56 35.04"/><rect xmlns="http://www.w3.org/2000/svg" x="16.09" y="46" width="67.81" height="8" transform="translate(-9.46 88.27) rotate(-77.77)"/></g>
      </g>
    </symbol>

    <symbol id="svg-back-button" viewBox="0 0 52 52">
      <title>Back button icon</title>
      <g>
        <path d="M26,0C11.663,0,0,11.663,0,26s11.663,26,26,26s26-11.663,26-26S40.337,0,26,0z M26,50C12.767,50,2,39.233,2,26
          S12.767,2,26,2s24,10.767,24,24S39.233,50,26,50z"/>
        <path d="M32,36.783V15.438L14.043,25.806L32,36.783z M30,33.217l-12.043-7.362L30,18.902V33.217z"/>
      </g>
    </symbol>

    <symbol viewBox="0 0 49.652 49.652" id="svg-twitter">
      <title>Twitter icon</title>
      <g>
        <g>
          <path d="M24.826,0C11.137,0,0,11.137,0,24.826c0,13.688,11.137,24.826,24.826,24.826c13.688,0,24.826-11.138,24.826-24.826
            C49.652,11.137,38.516,0,24.826,0z M35.901,19.144c0.011,0.246,0.017,0.494,0.017,0.742c0,7.551-5.746,16.255-16.259,16.255
            c-3.227,0-6.231-0.943-8.759-2.565c0.447,0.053,0.902,0.08,1.363,0.08c2.678,0,5.141-0.914,7.097-2.446
            c-2.5-0.046-4.611-1.698-5.338-3.969c0.348,0.066,0.707,0.103,1.074,0.103c0.521,0,1.027-0.068,1.506-0.199
            c-2.614-0.524-4.583-2.833-4.583-5.603c0-0.024,0-0.049,0.001-0.072c0.77,0.427,1.651,0.685,2.587,0.714
            c-1.532-1.023-2.541-2.773-2.541-4.755c0-1.048,0.281-2.03,0.773-2.874c2.817,3.458,7.029,5.732,11.777,5.972
            c-0.098-0.419-0.147-0.854-0.147-1.303c0-3.155,2.558-5.714,5.713-5.714c1.644,0,3.127,0.694,4.171,1.804
            c1.303-0.256,2.523-0.73,3.63-1.387c-0.43,1.335-1.333,2.454-2.516,3.162c1.157-0.138,2.261-0.444,3.282-0.899
            C37.987,17.334,37.018,18.341,35.901,19.144z"/>
        </g>
      </g>
      <g>
      </g>
      <g>
      </g>
      <g>
      </g>
      <g>
      </g>
      <g>
      </g>
      <g>
      </g>
      <g>
      </g>
      <g>
      </g>
      <g>
      </g>
      <g>
      </g>
      <g>
      </g>
      <g>
      </g>
      <g>
      </g>
      <g>
      </g>
      <g>
      </g>
    </symbol>

    <symbol id="svg-github" viewBox="0 0 438 438">
      <title>Github icon</title>
      <path d="M409.132,114.573c-19.608-33.596-46.205-60.194-79.798-79.8C295.736,15.166,259.057,5.365,219.271,5.365
               c-39.781,0-76.472,9.804-110.063,29.408c-33.596,19.605-60.192,46.204-79.8,79.8C9.803,148.168,0,184.854,0,224.63
               c0,47.78,13.94,90.745,41.827,128.906c27.884,38.164,63.906,64.572,108.063,79.227c5.14,0.954,8.945,0.283,11.419-1.996
               c2.475-2.282,3.711-5.14,3.711-8.562c0-0.571-0.049-5.708-0.144-15.417c-0.098-9.709-0.144-18.179-0.144-25.406l-6.567,1.136
               c-4.187,0.767-9.469,1.092-15.846,1c-6.374-0.089-12.991-0.757-19.842-1.999c-6.854-1.231-13.229-4.086-19.13-8.559
               c-5.898-4.473-10.085-10.328-12.56-17.556l-2.855-6.57c-1.903-4.374-4.899-9.233-8.992-14.559
               c-4.093-5.331-8.232-8.945-12.419-10.848l-1.999-1.431c-1.332-0.951-2.568-2.098-3.711-3.429c-1.142-1.331-1.997-2.663-2.568-3.997
               c-0.572-1.335-0.098-2.43,1.427-3.289c1.525-0.859,4.281-1.276,8.28-1.276l5.708,0.853c3.807,0.763,8.516,3.042,14.133,6.851
               c5.614,3.806,10.229,8.754,13.846,14.842c4.38,7.806,9.657,13.754,15.846,17.847c6.184,4.093,12.419,6.136,18.699,6.136
               c6.28,0,11.704-0.476,16.274-1.423c4.565-0.952,8.848-2.383,12.847-4.285c1.713-12.758,6.377-22.559,13.988-29.41
               c-10.848-1.14-20.601-2.857-29.264-5.14c-8.658-2.286-17.605-5.996-26.835-11.14c-9.235-5.137-16.896-11.516-22.985-19.126
               c-6.09-7.614-11.088-17.61-14.987-29.979c-3.901-12.374-5.852-26.648-5.852-42.826c0-23.035,7.52-42.637,22.557-58.817
               c-7.044-17.318-6.379-36.732,1.997-58.24c5.52-1.715,13.706-0.428,24.554,3.853c10.85,4.283,18.794,7.952,23.84,10.994
               c5.046,3.041,9.089,5.618,12.135,7.708c17.705-4.947,35.976-7.421,54.818-7.421s37.117,2.474,54.823,7.421l10.849-6.849
               c7.419-4.57,16.18-8.758,26.262-12.565c10.088-3.805,17.802-4.853,23.134-3.138c8.562,21.509,9.325,40.922,2.279,58.24
               c15.036,16.18,22.559,35.787,22.559,58.817c0,16.178-1.958,30.497-5.853,42.966c-3.9,12.471-8.941,22.457-15.125,29.979
               c-6.191,7.521-13.901,13.85-23.131,18.986c-9.232,5.14-18.182,8.85-26.84,11.136c-8.662,2.286-18.415,4.004-29.263,5.146
               c9.894,8.562,14.842,22.077,14.842,40.539v60.237c0,3.422,1.19,6.279,3.572,8.562c2.379,2.279,6.136,2.95,11.276,1.995
               c44.163-14.653,80.185-41.062,108.068-79.226c27.88-38.161,41.825-81.126,41.825-128.906
               C438.536,184.851,428.728,148.168,409.132,114.573z"/>
    </symbol>

    <symbol viewBox="0 0 31.665 31.665" id="svg-codepen">
      <title>Codepen icon</title>
      <g>
        <path d="M16.878,0.415c-0.854-0.565-1.968-0.552-2.809,0.034L1.485,9.214c-0.671,0.468-1.071,1.233-1.071,2.052v9.444   c0,0.84,0.421,1.623,1.122,2.086l12.79,8.455c0.836,0.553,1.922,0.553,2.758,0l13.044-8.618c0.7-0.463,1.122-1.246,1.122-2.086   v-9.279c0-0.839-0.421-1.622-1.121-2.085L16.878,0.415z M26.621,10.645l-4.821,3.237l-4.521-3.288L17.25,4.127L26.621,10.645z    M13.979,4.133v6.329l-4.633,3.24l-4.621-3.099L13.979,4.133z M3.458,13.722l2.991,2.004l-2.991,2.093V13.722z M14.058,27.215   l-9.331-6.258l4.661-3.258l4.67,3.133V27.215z M12.286,15.674l3.021-2.113l3.519,2.313l-3.119,2.095L12.286,15.674z M17.354,27.215   V20.83l4.463-2.991l4.805,3.159L17.354,27.215z M27.954,17.927l-3.168-2.082l3.168-2.125V17.927z" fill="currentColor"/>
      </g>
      <g>
      </g>
      <g>
      </g>
      <g>
      </g>
      <g>
      </g>
      <g>
      </g>
      <g>
      </g>
      <g>
      </g>
      <g>
      </g>
      <g>
      </g>
      <g>
      </g>
      <g>
      </g>
      <g>
      </g>
      <g>
      </g>
      <g>
      </g>
      <g>
      </g>
    </symbol>
  </defs>
</svg>